<mxfile host="app.diagrams.net" modified="2022-04-25T02:02:34.011Z" agent="5.0 (X11)" etag="aVE69UXb4sbq09ChCjD5" version="17.4.6" type="github">
  <diagram id="kjixh0FCLiWZOvIog2tQ" name="Page-1">
    <mxGraphModel dx="1877" dy="2718" grid="1" gridSize="10" guides="1" tooltips="1" connect="1" arrows="1" fold="1" page="1" pageScale="1" pageWidth="850" pageHeight="1100" math="0" shadow="0">
      <root>
        <mxCell id="0" />
        <mxCell id="1" parent="0" />
        <mxCell id="OKup5fv8xLVV3rsqo1rD-1" value="" style="endArrow=none;html=1;rounded=0;strokeWidth=4;" edge="1" parent="1">
          <mxGeometry width="50" height="50" relative="1" as="geometry">
            <mxPoint x="200" y="440" as="sourcePoint" />
            <mxPoint x="200" y="-10" as="targetPoint" />
          </mxGeometry>
        </mxCell>
        <mxCell id="OKup5fv8xLVV3rsqo1rD-3" value="" style="endArrow=none;html=1;rounded=0;strokeWidth=4;" edge="1" parent="1">
          <mxGeometry width="50" height="50" relative="1" as="geometry">
            <mxPoint x="160" y="400" as="sourcePoint" />
            <mxPoint x="735.8823529411765" y="400" as="targetPoint" />
          </mxGeometry>
        </mxCell>
        <mxCell id="OKup5fv8xLVV3rsqo1rD-5" value="1" style="edgeLabel;html=1;align=center;verticalAlign=middle;resizable=0;points=[];fontSize=30;" vertex="1" connectable="0" parent="OKup5fv8xLVV3rsqo1rD-3">
          <mxGeometry x="-0.4812" y="1" relative="1" as="geometry">
            <mxPoint x="-29" y="31" as="offset" />
          </mxGeometry>
        </mxCell>
        <mxCell id="OKup5fv8xLVV3rsqo1rD-7" value="2" style="edgeLabel;html=1;align=center;verticalAlign=middle;resizable=0;points=[];fontSize=30;" vertex="1" connectable="0" parent="1">
          <mxGeometry x="440" y="430" as="geometry" />
        </mxCell>
        <mxCell id="OKup5fv8xLVV3rsqo1rD-9" value="3" style="edgeLabel;html=1;align=center;verticalAlign=middle;resizable=0;points=[];fontSize=30;" vertex="1" connectable="0" parent="1">
          <mxGeometry x="360" y="430" as="geometry" />
        </mxCell>
        <mxCell id="OKup5fv8xLVV3rsqo1rD-10" value="4" style="edgeLabel;html=1;align=center;verticalAlign=middle;resizable=0;points=[];fontSize=30;" vertex="1" connectable="0" parent="1">
          <mxGeometry x="520" y="420" as="geometry">
            <mxPoint y="7" as="offset" />
          </mxGeometry>
        </mxCell>
        <mxCell id="OKup5fv8xLVV3rsqo1rD-11" value="5" style="edgeLabel;html=1;align=center;verticalAlign=middle;resizable=0;points=[];fontSize=30;" vertex="1" connectable="0" parent="1">
          <mxGeometry x="600" y="430" as="geometry" />
        </mxCell>
        <mxCell id="OKup5fv8xLVV3rsqo1rD-12" value="" style="strokeWidth=4;html=1;shape=mxgraph.flowchart.annotation_1;align=left;pointerEvents=1;fontSize=30;direction=south;" vertex="1" parent="1">
          <mxGeometry x="280" y="320" width="80" height="80" as="geometry" />
        </mxCell>
        <mxCell id="OKup5fv8xLVV3rsqo1rD-13" value="" style="strokeWidth=4;html=1;shape=mxgraph.flowchart.annotation_1;align=left;pointerEvents=1;fontSize=30;direction=south;" vertex="1" parent="1">
          <mxGeometry x="520" y="240" width="80" height="160" as="geometry" />
        </mxCell>
        <mxCell id="OKup5fv8xLVV3rsqo1rD-14" value="" style="strokeWidth=4;html=1;shape=mxgraph.flowchart.annotation_1;align=left;pointerEvents=1;fontSize=30;direction=south;" vertex="1" parent="1">
          <mxGeometry x="320" y="120" width="120" height="200" as="geometry" />
        </mxCell>
        <mxCell id="OKup5fv8xLVV3rsqo1rD-15" value="" style="strokeWidth=4;html=1;shape=mxgraph.flowchart.annotation_1;align=left;pointerEvents=1;fontSize=30;direction=south;" vertex="1" parent="1">
          <mxGeometry x="380" width="180" height="120" as="geometry" />
        </mxCell>
        <mxCell id="OKup5fv8xLVV3rsqo1rD-16" value="1" style="text;whiteSpace=wrap;html=1;fontSize=30;" vertex="1" parent="1">
          <mxGeometry x="140" y="300" width="40" height="50" as="geometry" />
        </mxCell>
        <mxCell id="OKup5fv8xLVV3rsqo1rD-17" value="2" style="text;whiteSpace=wrap;html=1;fontSize=30;" vertex="1" parent="1">
          <mxGeometry x="140" y="220" width="40" height="50" as="geometry" />
        </mxCell>
        <mxCell id="OKup5fv8xLVV3rsqo1rD-18" value="3.5" style="text;whiteSpace=wrap;html=1;fontSize=30;" vertex="1" parent="1">
          <mxGeometry x="130" y="100" width="40" height="50" as="geometry" />
        </mxCell>
        <mxCell id="OKup5fv8xLVV3rsqo1rD-19" value="4.75" style="text;whiteSpace=wrap;html=1;fontSize=30;" vertex="1" parent="1">
          <mxGeometry x="120" width="40" height="50" as="geometry" />
        </mxCell>
        <mxCell id="OKup5fv8xLVV3rsqo1rD-23" value="" style="endArrow=none;html=1;rounded=0;fontSize=30;strokeWidth=4;entryX=1;entryY=0;entryDx=0;entryDy=0;entryPerimeter=0;" edge="1" parent="1" target="OKup5fv8xLVV3rsqo1rD-14">
          <mxGeometry width="50" height="50" relative="1" as="geometry">
            <mxPoint x="440" y="400" as="sourcePoint" />
            <mxPoint x="450" y="260" as="targetPoint" />
          </mxGeometry>
        </mxCell>
        <mxCell id="OKup5fv8xLVV3rsqo1rD-24" value="" style="endArrow=none;html=1;rounded=0;fontSize=30;strokeWidth=4;entryX=1;entryY=0;entryDx=0;entryDy=0;entryPerimeter=0;exitX=0;exitY=0.5;exitDx=0;exitDy=0;exitPerimeter=0;" edge="1" parent="1" source="OKup5fv8xLVV3rsqo1rD-13" target="OKup5fv8xLVV3rsqo1rD-15">
          <mxGeometry width="50" height="50" relative="1" as="geometry">
            <mxPoint x="450" y="409.9999999999998" as="sourcePoint" />
            <mxPoint x="450" y="329.9999999999998" as="targetPoint" />
          </mxGeometry>
        </mxCell>
        <mxCell id="OKup5fv8xLVV3rsqo1rD-25" value="Jarak" style="text;html=1;strokeColor=none;fillColor=none;align=center;verticalAlign=middle;whiteSpace=wrap;rounded=0;fontSize=30;" vertex="1" parent="1">
          <mxGeometry y="150" width="60" height="30" as="geometry" />
        </mxCell>
        <mxCell id="OKup5fv8xLVV3rsqo1rD-26" value="Data" style="text;html=1;strokeColor=none;fillColor=none;align=center;verticalAlign=middle;whiteSpace=wrap;rounded=0;fontSize=30;" vertex="1" parent="1">
          <mxGeometry x="440" y="480" width="60" height="30" as="geometry" />
        </mxCell>
      </root>
    </mxGraphModel>
  </diagram>
</mxfile>
